<?xml version="1.0" standalone="no"?>
<!DOCTYPE svg PUBLIC "-//W3C//DTD SVG 20010904//EN"
 "http://www.w3.org/TR/2001/REC-SVG-20010904/DTD/svg10.dtd">
<svg version="1.0" xmlns="http://www.w3.org/2000/svg"
 width="320.000000pt" height="320.000000pt" viewBox="0 0 320.000000 320.000000"
 preserveAspectRatio="xMidYMid meet">
<metadata>
Created by potrace 1.14, written by Peter Selinger 2001-2017
</metadata>
<g transform="translate(0.000000,320.000000) scale(0.100000,-0.100000)"
fill="#000000" stroke="none">
<path d="M1567 2924 c-1 -1 -32 -5 -68 -8 -293 -24 -590 -161 -800 -368 -95
-94 -107 -108 -173 -202 -109 -156 -187 -353 -221 -561 -15 -89 -12 -304 6
-402 23 -129 23 -126 53 -217 45 -134 140 -307 227 -412 100 -120 252 -245
394 -324 67 -37 207 -97 246 -106 11 -2 29 -7 42 -10 116 -31 230 -44 372 -40
165 4 193 7 308 37 487 124 857 512 967 1014 25 114 32 309 17 445 -10 85 -51
236 -90 330 -168 409 -529 709 -957 794 -100 20 -312 39 -323 30z"/>
</g>
</svg>
